<mxfile host="app.diagrams.net" modified="2023-12-07T10:21:30.696Z" agent="Mozilla/5.0 (Windows NT 10.0; Win64; x64) AppleWebKit/537.36 (KHTML, like Gecko) Chrome/117.0.0.0 Safari/537.36" version="22.1.7" etag="djOye5Mt8ySUnISy927R" type="github">
  <diagram name="Page-1" id="raTbgkiV0eQXkXkvPbVg">
    <mxGraphModel>
      <root>
        <mxCell id="0" />
        <mxCell id="1" parent="0" />
      </root>
    </mxGraphModel>
  </diagram>
</mxfile>
